<?xml version="1.0" encoding="utf-8"?><svg viewBox="0 0 512 512" xmlns="http://www.w3.org/2000/svg" xmlns:xlink="http://www.w3.org/1999/xlink"><style>:root>svg{display:none}:root>svg:target{display:block}</style><svg viewBox="0 0 512 512" fill="#93A1C8" id="i-arrow" xmlns="http://www.w3.org/2000/svg"><path d="M506.134 241.843l-.018-.019-104.504-104c-7.829-7.791-20.492-7.762-28.285.068-7.792 7.829-7.762 20.492.067 28.284L443.558 236H20c-11.046 0-20 8.954-20 20s8.954 20 20 20h423.557l-70.162 69.824c-7.829 7.792-7.859 20.455-.067 28.284 7.793 7.831 20.457 7.858 28.285.068l104.504-104 .018-.019c7.833-7.818 7.808-20.522-.001-28.314z"/></svg><svg fill="none" viewBox="0 0 18 24" id="i-lock" xmlns="http://www.w3.org/2000/svg"><path d="M9 .706a6.327 6.327 0 00-6.353 6.353v2.823C1.447 9.882.529 10.8.529 12v9.177c0 1.2.918 2.117 2.118 2.117h12.706c1.2 0 2.118-.918 2.118-2.117V12c0-1.2-.918-2.118-2.118-2.118V7.06A6.327 6.327 0 009 .706zM16.059 12v9.177c0 .423-.283.705-.706.705H2.647c-.423 0-.706-.282-.706-.706V12c0-.424.283-.706.706-.706h12.706c.423 0 .706.282.706.706zm-12-2.118V7.06A4.91 4.91 0 019 2.118a4.91 4.91 0 014.941 4.94v2.824H4.06z" fill="#F75DB8"/><path d="M9 13.412c-1.2 0-2.118.917-2.118 2.117 0 .918.565 1.695 1.412 1.977v1.553c0 .423.282.706.706.706s.706-.283.706-.706v-1.553a2.056 2.056 0 001.412-1.977c0-1.2-.918-2.117-2.118-2.117zm0 2.823c-.424 0-.706-.282-.706-.706 0-.423.282-.706.706-.706s.706.283.706.706c0 .424-.282.706-.706.706z" fill="#F75DB8"/></svg><svg fill="none" viewBox="0 0 24 18" id="i-message" xmlns="http://www.w3.org/2000/svg"><path fill-rule="evenodd" clip-rule="evenodd" d="M2.11.797h19.78c1.164 0 2.11.946 2.11 2.11v12.187c0 1.163-.946 2.11-2.11 2.11H2.11A2.112 2.112 0 010 15.093V2.906C0 1.743.946.796 2.11.796zm19.78 15a.704.704 0 00.704-.703V2.906a.704.704 0 00-.703-.703H2.109a.704.704 0 00-.703.703v12.188c0 .388.316.703.703.703h19.782zM16.397 7.3l3.887 4.57a.703.703 0 11-1.071.911l-4.059-4.771-2.805 1.6a.703.703 0 01-.696 0l-2.805-1.6-4.059 4.771a.703.703 0 01-1.07-.911L7.603 7.3l-3.452-1.97a.703.703 0 11.696-1.22L12 8.19l7.152-4.08a.703.703 0 01.696 1.22l-3.452 1.97z" fill="#F75DB8"/></svg><svg fill="none" viewBox="0 0 21 20" id="i-star" xmlns="http://www.w3.org/2000/svg"><path d="M20.267 7.043l-6.279-.913L11.182.44a.795.795 0 00-1.42 0L6.955 6.13l-6.278.913a.79.79 0 00-.438 1.35l4.543 4.428-1.073 6.254a.79.79 0 001.147.834l5.616-2.953 5.616 2.953a.79.79 0 001.147-.833l-1.073-6.255 4.542-4.428a.79.79 0 00.23-.453.789.789 0 00-.667-.897z" fill="#FFD304"/></svg></svg>