<?xml version="1.0" encoding="utf-8"?><svg viewBox="0 0 512 512" xmlns="http://www.w3.org/2000/svg" xmlns:xlink="http://www.w3.org/1999/xlink"><style>:root>svg{display:none}:root>svg:target{display:block}</style><svg viewBox="0 0 512 512" fill="#93A1C8" id="i-arrow" xmlns="http://www.w3.org/2000/svg"><path d="M506.134 241.843l-.018-.019-104.504-104c-7.829-7.791-20.492-7.762-28.285.068-7.792 7.829-7.762 20.492.067 28.284L443.558 236H20c-11.046 0-20 8.954-20 20s8.954 20 20 20h423.557l-70.162 69.824c-7.829 7.792-7.859 20.455-.067 28.284 7.793 7.831 20.457 7.858 28.285.068l104.504-104 .018-.019c7.833-7.818 7.808-20.522-.001-28.314z"/></svg><svg fill="none" viewBox="0 0 135 101" id="i-qoute" xmlns="http://www.w3.org/2000/svg"><path d="M31.333 40.667c-1.486 0-2.913.226-4.333.433.46-1.547.933-3.12 1.693-4.533.76-2.054 1.947-3.834 3.127-5.627.987-1.94 2.727-3.253 4.007-4.913 1.34-1.614 3.166-2.687 4.613-4.027 1.42-1.4 3.28-2.1 4.76-3.087 1.547-.886 2.893-1.866 4.333-2.333l3.594-1.48 3.16-1.313L53.053.867l-3.98.96c-1.273.32-2.826.693-4.593 1.14-1.807.333-3.733 1.246-5.88 2.08-2.12.946-4.573 1.586-6.853 3.106-2.294 1.454-4.94 2.667-7.274 4.614-2.26 2.006-4.986 3.746-7 6.3-2.2 2.386-4.373 4.893-6.06 7.746-1.953 2.72-3.28 5.707-4.68 8.66-1.266 2.954-2.286 5.974-3.12 8.907-1.58 5.88-2.286 11.467-2.56 16.247-.226 4.786-.093 8.766.187 11.646.1 1.36.287 2.68.42 3.594l.167 1.12.173-.04a30 30 0 1029.333-36.28zm73.334 0c-1.487 0-2.914.226-4.334.433.46-1.547.934-3.12 1.694-4.533.76-2.054 1.946-3.834 3.126-5.627.987-1.94 2.727-3.253 4.007-4.913 1.34-1.614 3.167-2.687 4.613-4.027 1.42-1.4 3.28-2.1 4.76-3.087 1.547-.886 2.894-1.866 4.334-2.333l3.593-1.48 3.16-1.313-3.233-12.92-3.98.96c-1.274.32-2.827.693-4.594 1.14-1.806.333-3.733 1.246-5.88 2.08-2.113.953-4.573 1.586-6.853 3.113-2.293 1.453-4.94 2.667-7.273 4.613-2.26 2.007-4.987 3.747-7 6.294-2.2 2.386-4.374 4.893-6.06 7.746-1.954 2.72-3.28 5.707-4.68 8.66-1.267 2.954-2.287 5.974-3.12 8.907-1.58 5.88-2.287 11.467-2.56 16.247-.227 4.786-.094 8.766.186 11.646.1 1.36.287 2.68.42 3.594l.167 1.12.173-.04a30 30 0 1029.334-36.28z" fill="#fff"/></svg><svg fill="none" viewBox="0 0 14 13" id="i-star" xmlns="http://www.w3.org/2000/svg"><path d="M13.19 4.517l-3.968-.576L7.448.345a.502.502 0 00-.897 0L4.779 3.941l-3.967.576a.499.499 0 00-.277.853l2.87 2.799-.677 3.951a.5.5 0 00.725.527L7 10.78l3.548 1.866a.5.5 0 00.725-.527l-.678-3.951 2.87-2.799a.499.499 0 00-.276-.853z" fill="#fff"/></svg></svg>