<svg xmlns="http://www.w3.org/2000/svg" width="171" height="42"><defs><linearGradient id="py8pa" x1="40.97" x2=".42" y1="68.17" y2="-35.03" gradientUnits="userSpaceOnUse"><stop offset="0" stop-color="#f85db9"/><stop offset=".17" stop-color="#ef5cbb"/><stop offset=".45" stop-color="#d558c1"/><stop offset=".81" stop-color="#ac52cb"/><stop offset="1" stop-color="#934ed1"/></linearGradient><linearGradient id="py8pc" x1="22.78" x2="35.43" y1="29.19" y2="52.1" gradientUnits="userSpaceOnUse"><stop offset="0" stop-color="#fecf00"/><stop offset=".34" stop-color="#fdc607"/><stop offset="1" stop-color="#faa81c"/></linearGradient><linearGradient id="py8pd" x1="5.25" x2="37.04" y1="6.34" y2="32.8" gradientUnits="userSpaceOnUse"><stop offset="0" stop-color="#6435a5"/><stop offset=".24" stop-color="#6d3aae"/><stop offset=".63" stop-color="#8747c6"/><stop offset="1" stop-color="#934ed1"/></linearGradient><clipPath id="py8pb"><path d="M16.782 30.798l-.084.017a2.721 2.721 0 00-.137.04l.22-.057c.92.256 1.87.386 2.824.385H29.86v-6.606l-.06-.061v-4.032c0-.413-.025-.825-.075-1.235-.009-.078-.017-.122-.035-.239-.017-.117-.057-.23-.057-.346a9.485 9.485 0 00-.2-.867c-.023-.083-.031-.157-.062-.248-.03-.09-.066-.173-.096-.26v-.047a9.946 9.946 0 00-.372-.924l-.043-.09a9.967 9.967 0 00-.411-.777c-.03-.047-.053-.095-.083-.139l-.192-.303-.223-.325-.127-.174c-.355-.475-.751-.92-1.184-1.326l-.14-.13-.175-.16a5.693 5.693 0 01-.008-.026 10.309 10.309 0 00-10.945-1.561c-3.658 1.652-6.004 5.273-5.999 9.26v.507a10.08 10.08 0 00.922 4.218 39.461 39.461 0 01.005 0 10.269 10.269 0 006.48 5.506zm-13.067 1.34H3.61a17.412 17.412 0 01-2.417-4.63.18.18 0 000-.044A19.596 19.596 0 010 20.718v-.984C-.014 11.603 5.01 4.298 12.647 1.345c7.638-2.952 16.32-.946 21.856 5.05l-.018.005.04.043.135.143c.074.078.14.16.21.238a20.038 20.038 0 014.025 7.27c.496 1.655.772 3.368.821 5.094v.043c.005.191.009.373-.065.551v1.236h-.001l.075.017V34.59a5.863 5.863 0 001.738 4.167 5.96 5.96 0 004.192 1.724h-25.81c-6.457.004-12.513-3.107-16.235-8.34l.25.013a1.164 1.164 0 00-.145-.018zm41.949 8.344h-.009z"/></clipPath></defs><path fill="#0d1d4a" d="M103.726 27.176c-2.74 0-4.65-2.008-4.645-4.838.004-2.831 1.962-4.856 4.72-4.843 2.757.013 4.671 2.012 4.663 4.886-.01 2.874-1.936 4.816-4.738 4.795zm.088-13.236c-4.93-.043-8.605 3.538-8.614 8.398-.009 4.86 3.601 8.392 8.513 8.427 4.912.035 8.6-3.507 8.631-8.358.03-4.851-3.526-8.419-8.53-8.467zm44.379 8.617c2.622-2.415 3.26-5.44 2.037-8.74-1.154-3.121-3.606-4.638-6.892-4.768-4.694-.195-8.212 2.947-8.277 7.37-.026 1.941.572 3.615 2.124 4.868a1.76 1.76 0 001.692.385 1.74 1.74 0 001.192-1.252c.184-.737-.157-1.327-.546-1.912a3.644 3.644 0 01-.083-4.249c1.005-1.552 2.6-1.833 4.313-1.565a3.45 3.45 0 013.007 2.736 4.511 4.511 0 01-1.35 4.725c-.473.434-.984.833-1.5 1.223-2.508 1.916-5.02 3.83-7.534 5.744-.747.572-.979 1.214-.747 1.964a1.99 1.99 0 001.831 1.404h11.048c.2.013.4.013.599 0a1.805 1.805 0 001.669-1.795 1.726 1.726 0 00-.462-1.246 1.754 1.754 0 00-1.216-.557c-.778-.06-1.56-.035-2.343-.039h-3.933l-.052-.139c.266-.195.533-.386.795-.585 1.53-1.183 3.195-2.254 4.628-3.572zm-88.063 1.15c-.436 2.259-1.948 3.468-4.251 3.468-2.369 0-4.222-1.365-4.585-3.537a7.544 7.544 0 01.04-2.749c.515-2.367 2.679-3.689 5.296-3.364 2.518.308 3.632 1.713 3.667 4.583-.053.524-.066 1.057-.166 1.6zm-.585-9.073a9.611 9.611 0 00-7.364.039c-5.366 2.09-6.38 9.537-2.818 13.413 2.81 3.065 8.334 3.767 10.82.585.048.076.089.155.123.238.38 1.197 1.123 1.734 2.185 1.583 1.062-.152 1.63-.915 1.634-2.098 0-2.432.066-4.869-.026-7.3-.127-3.092-1.683-5.277-4.554-6.46zm108.235 7.222c-.83 0-1.66.134-2.53.208v-1.24c0-1.565-.508-2.211-1.749-2.211-1.24 0-1.77.65-1.77 2.167v1.37l-3.649-.386c.118-.195.223-.381.341-.563l5.769-8.779c.18-.253.336-.52.467-.802a1.833 1.833 0 00-.005-1.545 1.858 1.858 0 00-1.188-1c-.874-.286-1.783.074-2.377 1.032-2.535 4.084-5.07 8.172-7.57 12.277-.991 1.622-.152 3.035 1.749 3.065h4.755c1.18 0 1.542.369 1.582 1.552.022.664 0 1.331.035 1.994.087 1.045.821 1.635 1.914 1.609.477.028.944-.144 1.287-.473.343-.33.53-.788.518-1.261.022-.62 0-1.24.022-1.86.065-1.231.415-1.552 1.647-1.57h.739c1.276-.025 2.006-.684 2.001-1.811-.004-1.128-.72-1.79-1.988-1.773zm-43.905 5.367c-2.097.017-3.81-1.096-4.37-2.936a13.795 13.795 0 01-.301-1.815h.06c.023-.372 0-.753.075-1.121.376-2.503 1.958-3.898 4.37-3.842 2.413.057 4.34 1.633 4.563 4.028a7.298 7.298 0 01-.175 2.499c-.52 2.014-2.124 3.17-4.222 3.187zm-.043-13.273c-4.523-.212-8.203 2.883-8.374 7.322-.157 4.136-.06 8.28-.039 12.42-.01.485.179.953.522 1.298.343.345.812.539 1.3.536a1.84 1.84 0 001.967-1.612 7.38 7.38 0 00.066-1.123v-4.032c.733.56 1.512 1.057 2.329 1.487a7.265 7.265 0 005.423.052c5.546-1.96 6.512-9.19 3.645-13.036-1.7-2.271-4.073-3.177-6.84-3.312zm-31.484-.008h-9.675a1.936 1.936 0 00-1.853 1.927c0 1.03.816 1.878 1.853 1.927h3.032v11.029a1.938 1.938 0 001.943 1.837 1.938 1.938 0 001.943-1.837V17.796h2.757a1.949 1.949 0 001.76-.936 1.916 1.916 0 000-1.982 1.949 1.949 0 00-1.76-.936zM72.542 28.04a8.726 8.726 0 01-1.207-.06c-.192-.043-.288-.147-.288-.316v-4.188c0-.17.096-.251.288-.251h1.11c2.588 0 3.881.767 3.881 2.301.009 1.677-1.253 2.515-3.784 2.515zM71.06 17.013a.3.3 0 01.254-.316 14.42 14.42 0 011.145-.065c2.185 0 3.277.631 3.277 1.894a1.732 1.732 0 01-.909 1.544 4.584 4.584 0 01-2.465.567H71.35c-.193 0-.289-.082-.289-.251zm4.768 4.76h-.03l.03-.03a5.263 5.263 0 002.814-1.3 3.217 3.217 0 001.036-2.415c0-2.731-2.523-4.097-7.57-4.097-1.057 0-2.202.052-3.434.156a1.894 1.894 0 00-1.311.629c-.333.37-.512.852-.503 1.348v12.572c-.005.493.176.971.507 1.34a1.82 1.82 0 001.272.645c1.337.109 2.574.16 3.719.16 5.346 0 8.018-1.65 8.015-4.95a3.456 3.456 0 00-1.206-2.684 6.043 6.043 0 00-3.339-1.374z"/><path fill="url(#py8pa)" d="M16.782 30.798l-.084.017a2.721 2.721 0 00-.137.04l.22-.057c.92.256 1.87.386 2.824.385H29.86v-6.606l-.06-.061v-4.032c0-.413-.025-.825-.075-1.235-.009-.078-.017-.122-.035-.239-.017-.117-.057-.23-.057-.346a9.485 9.485 0 00-.2-.867c-.023-.083-.031-.157-.062-.248-.03-.09-.066-.173-.096-.26v-.047a9.946 9.946 0 00-.372-.924l-.043-.09a9.967 9.967 0 00-.411-.777c-.03-.047-.053-.095-.083-.139l-.192-.303-.223-.325-.127-.174c-.355-.475-.751-.92-1.184-1.326l-.14-.13-.175-.16a5.693 5.693 0 01-.008-.026 10.309 10.309 0 00-10.945-1.561c-3.658 1.652-6.004 5.273-5.999 9.26v.507a10.08 10.08 0 00.922 4.218 39.461 39.461 0 01.005 0 10.269 10.269 0 006.48 5.506zm-13.067 1.34H3.61a17.412 17.412 0 01-2.417-4.63.18.18 0 000-.044A19.596 19.596 0 010 20.718v-.984C-.014 11.603 5.01 4.298 12.647 1.345c7.638-2.952 16.32-.946 21.856 5.05l-.018.005.04.043.135.143c.074.078.14.16.21.238a20.038 20.038 0 014.025 7.27c.496 1.655.772 3.368.821 5.094v.043c.005.191.009.373-.065.551v1.236h-.001l.075.017V34.59a5.863 5.863 0 001.738 4.167 5.96 5.96 0 004.192 1.724h-25.81c-6.457.004-12.513-3.107-16.235-8.34l.25.013a1.164 1.164 0 00-.145-.018zm41.949 8.344h-.009z"/><g clip-path="url(#py8pb)"><path fill="url(#py8pc)" d="M41.115 21.166c-3.273-.741-7.118 1.101-10.863 3.499 0 0-12.162 6.52-13.08 6.264A41.838 41.838 0 014 32.273c3.722 5.233 9.778 12.345 16.235 12.34l25.82-4c-1.576.002-2.088-.619-3.202-1.724a5.863 5.863 0 01-1.738-4.167z"/></g><g clip-path="url(#py8pb)"><path fill="url(#py8pd)" d="M10.296 25.292a10.08 10.08 0 01-.922-4.218v-.507c-.005-3.987 2.341-7.608 5.999-9.26a10.309 10.309 0 0110.98 1.59 13.357 13.357 0 018.15-6.502C28.966.4 20.285-1.607 12.647 1.345 5.009 4.298-.014 11.603 0 19.735v.983a19.59 19.59 0 001.193 6.746 36.038 36.038 0 009.103-2.172z"/></g></svg>